<svg width="512" height="512" viewBox="0 0 293 501" fill="none" xmlns="http://www.w3.org/2000/svg">
<g filter="url(#filter0_di_7_209)">
<path d="M0 16C0 7.16344 7.16344 0 16 0H277C285.837 0 293 7.16344 293 16V414C293 453.212 261.212 485 222 485H16C7.16344 485 0 477.837 0 469V16Z" fill="#D9D9D9"/>
</g>
<g filter="url(#filter1_i_7_209)">
<path d="M16 327.5C16 305.685 33.6848 288 55.5 288C77.3152 288 95 305.685 95 327.5C95 349.315 77.3152 367 55.5 367C33.6848 367 16 349.315 16 327.5Z" fill="#D2D2D2"/>
</g>
<g filter="url(#filter2_i_7_209)">
<path d="M24 320C24 318.343 25.3431 317 27 317H42C43.6569 317 45 315.657 45 314V299C45 297.343 46.3431 296 48 296H63C64.6569 296 66 297.343 66 299V314C66 315.657 67.3431 317 69 317H84C85.6569 317 87 318.343 87 320V335C87 336.657 85.6569 338 84 338H69C67.3431 338 66 339.343 66 341V356C66 357.657 64.6569 359 63 359H48C46.3431 359 45 357.657 45 356V341C45 339.343 43.6569 338 42 338H27C25.3431 338 24 336.657 24 335V320Z" fill="#3D3D3D"/>
</g>
<g filter="url(#filter3_i_7_209)">
<path d="M188.474 340.652C182.874 328.641 188.07 314.364 200.081 308.763L242.134 289.154C254.145 283.553 268.422 288.749 274.023 300.76V300.76C279.623 312.771 274.427 327.048 262.416 332.649L220.363 352.258C208.352 357.859 194.075 352.663 188.474 340.652V340.652Z" fill="#D2D2D2"/>
<g filter="url(#filter4_i_7_209)">
<path d="M190.784 331.083C190.673 321.287 198.525 313.346 208.321 313.346V313.346C218.118 313.346 226.15 321.287 226.261 331.083L226.266 331.522C226.377 341.318 218.525 349.259 208.728 349.259V349.259C198.932 349.259 190.9 341.318 190.789 331.522L190.784 331.083Z" fill="#853939"/>
</g>
<g filter="url(#filter5_i_7_209)">
<path d="M236.231 309.891C236.12 300.095 243.972 292.153 253.769 292.153V292.153C263.565 292.153 271.597 300.095 271.708 309.891L271.713 310.329C271.824 320.125 263.972 328.066 254.176 328.066V328.066C244.379 328.066 236.347 320.125 236.236 310.329L236.231 309.891Z" fill="#853939"/>
</g>
</g>
<g filter="url(#filter6_i_7_209)">
<path d="M137.874 411.968C135.54 406.962 137.705 401.013 142.711 398.679L160.837 390.226C165.842 387.892 171.792 390.058 174.126 395.063V395.063C176.46 400.068 174.295 406.018 169.289 408.352L151.163 416.805C146.158 419.139 140.208 416.973 137.874 411.968V411.968Z" fill="#D2D2D2"/>
</g>
<g filter="url(#filter7_i_7_209)">
<path d="M140.14 410.911C138.973 408.409 140.055 405.434 142.558 404.267L165.216 393.701C167.718 392.534 170.693 393.617 171.86 396.12V396.12C173.027 398.622 171.945 401.597 169.442 402.764L146.784 413.33C144.282 414.497 141.307 413.414 140.14 410.911V410.911Z" fill="#767A8A"/>
</g>
<g filter="url(#filter8_i_7_209)">
<path d="M93.2262 412.483C90.8921 407.478 93.0577 401.528 98.0631 399.194L116.189 390.742C121.195 388.408 127.144 390.573 129.478 395.579V395.579C131.813 400.584 129.647 406.534 124.642 408.868L106.515 417.32C101.51 419.654 95.5602 417.489 93.2262 412.483V412.483Z" fill="#D2D2D2"/>
</g>
<g filter="url(#filter9_i_7_209)">
<path d="M95.4919 411.427C94.3249 408.924 95.4077 405.949 97.9104 404.782L120.568 394.217C123.071 393.05 126.046 394.132 127.213 396.635V396.635C128.38 399.138 127.297 402.113 124.794 403.28L102.137 413.845C99.6339 415.012 96.659 413.929 95.4919 411.427V411.427Z" fill="#767A8A"/>
</g>
<g filter="url(#filter10_di_7_209)">
<path d="M16 57C16 47.6112 23.6112 40 33 40H259C268.389 40 276 47.6112 276 57V204C276 225.539 258.539 243 237 243H33C23.6112 243 16 235.389 16 226V57Z" fill="#767A8A"/>
</g>
<g filter="url(#filter11_ii_7_209)">
<path d="M59 71C59 66.5817 62.5817 63 67 63H225C229.418 63 233 66.5817 233 71V212C233 216.418 229.418 220 225 220H67C62.5817 220 59 216.418 59 212V71Z" fill="#C8EDBA"/>
</g>
<g filter="url(#filter12_i_7_209)">
<path d="M27 115C27 111.686 29.6863 109 33 109V109C36.3137 109 39 111.686 39 115V115C39 118.314 36.3137 121 33 121V121C29.6863 121 27 118.314 27 115V115Z" fill="#853939"/>
</g>
<g filter="url(#filter13_df_7_209)">
<path d="M128.219 139.455L107.355 150.96V147.619L124.469 138.381L124.315 138.688V138.04L124.469 138.347L107.355 129.108V125.767L128.219 137.273V139.455ZM139.541 158L134.53 140.545H137.359L141.143 154.54H141.263L145.132 140.545H147.876L151.763 154.54H151.899L155.632 140.545H158.462L153.467 158H150.45L146.581 144.483H146.428L142.558 158H139.541ZM164.777 139.455V137.273L185.641 125.767V129.108L168.527 138.347L168.697 138.04V138.688L168.527 138.381L185.641 147.619V150.96L164.777 139.455Z" fill="#0A2610"/>
</g>
<g filter="url(#filter14_i_7_209)">
<line y1="20.5" x2="293.002" y2="20.5" stroke="#D2D2D2" stroke-width="3"/>
<line x1="19.5" x2="19.5" y2="22" stroke="#D2D2D2" stroke-width="3"/>
<line x1="273.5" x2="273.5" y2="22" stroke="#D2D2D2" stroke-width="3"/>
</g>
<path d="M17.582 261H16.3072L18.896 253.727H20.3306L22.9194 261H21.6445L19.6417 255.126H19.5849L17.582 261ZM17.7063 258.152H21.5131V259.136H17.7063V258.152ZM27.3814 258.724V255.545H28.5462V261H27.4098V260.045H27.353C27.2275 260.341 27.0263 260.586 26.7493 260.78C26.4723 260.974 26.1278 261.071 25.7159 261.071C25.3655 261.071 25.0542 260.993 24.782 260.837C24.5121 260.678 24.3002 260.446 24.1463 260.141C23.9924 259.835 23.9155 259.46 23.9155 259.015V255.545H25.0803V258.855C25.0803 259.215 25.1797 259.501 25.3786 259.714C25.5774 259.928 25.8355 260.034 26.1527 260.034C26.3492 260.034 26.541 259.987 26.728 259.892C26.9174 259.795 27.0736 259.649 27.1967 259.455C27.3198 259.261 27.3814 259.017 27.3814 258.724ZM29.9213 261V255.545H31.0506V256.433H31.1074C31.2069 256.13 31.3797 255.893 31.6259 255.723C31.8745 255.55 32.1574 255.464 32.4746 255.464C32.5409 255.464 32.619 255.467 32.709 255.474C32.7989 255.479 32.8723 255.486 32.9292 255.496V256.589C32.8818 256.573 32.8013 256.558 32.6877 256.543C32.5764 256.527 32.4663 256.518 32.3574 256.518C32.1136 256.518 31.8958 256.571 31.704 256.675C31.5123 256.777 31.3607 256.919 31.2495 257.101C31.1406 257.283 31.0861 257.491 31.0861 257.726V261H29.9213ZM35.9494 261.11C35.4262 261.11 34.9717 260.993 34.5858 260.759C34.2022 260.524 33.9039 260.196 33.6909 259.775C33.4778 259.351 33.3713 258.859 33.3713 258.298C33.3713 257.732 33.4778 257.237 33.6909 256.813C33.9039 256.389 34.2022 256.06 34.5858 255.826C34.9717 255.592 35.4262 255.474 35.9494 255.474C36.4702 255.474 36.9236 255.592 37.3095 255.826C37.6954 256.06 37.9937 256.389 38.2044 256.813C38.4174 257.237 38.524 257.732 38.524 258.298C38.524 258.859 38.4174 259.351 38.2044 259.775C37.9937 260.196 37.6954 260.524 37.3095 260.759C36.9236 260.993 36.4702 261.11 35.9494 261.11ZM35.9529 260.155C36.2654 260.155 36.5247 260.071 36.7306 259.903C36.9366 259.732 37.0905 259.507 37.1923 259.228C37.2941 258.946 37.345 258.635 37.345 258.294C37.345 257.951 37.2941 257.638 37.1923 257.357C37.0905 257.072 36.9366 256.846 36.7306 256.678C36.5247 256.508 36.2654 256.423 35.9529 256.423C35.6357 256.423 35.3729 256.508 35.1646 256.678C34.9586 256.846 34.8047 257.072 34.7029 257.357C34.6011 257.638 34.5502 257.951 34.5502 258.294C34.5502 258.635 34.6011 258.946 34.7029 259.228C34.8047 259.507 34.9586 259.732 35.1646 259.903C35.3729 260.071 35.6357 260.155 35.9529 260.155ZM39.6577 261V255.545H40.7869V256.433H40.8438C40.9432 256.13 41.116 255.893 41.3622 255.723C41.6108 255.55 41.8937 255.464 42.2109 255.464C42.2772 255.464 42.3554 255.467 42.4453 255.474C42.5353 255.479 42.6087 255.486 42.6655 255.496V256.589C42.6181 256.573 42.5376 256.558 42.424 256.543C42.3127 256.527 42.2027 256.518 42.0938 256.518C41.8499 256.518 41.6321 256.571 41.4403 256.675C41.2486 256.777 41.0971 256.919 40.9858 257.101C40.8769 257.283 40.8224 257.491 40.8224 257.726V261H39.6577ZM45.0563 261.114C44.7106 261.114 44.3981 261.051 44.1188 260.925C43.8418 260.8 43.6228 260.614 43.4618 260.368C43.3008 260.122 43.2203 259.821 43.2203 259.466C43.2203 259.156 43.2783 258.901 43.3944 258.702C43.5127 258.501 43.6713 258.341 43.8702 258.223C44.0691 258.105 44.2916 258.016 44.5378 257.957C44.7864 257.897 45.0409 257.853 45.3013 257.822C45.6257 257.784 45.8884 257.752 46.0897 257.726C46.2909 257.7 46.4377 257.658 46.53 257.602C46.6223 257.545 46.6685 257.454 46.6685 257.328V257.303C46.6685 257.014 46.5845 256.791 46.4164 256.632C46.2507 256.471 46.0068 256.391 45.6848 256.391C45.3463 256.391 45.0788 256.465 44.8823 256.614C44.6882 256.761 44.5544 256.929 44.481 257.119L43.3908 256.92C43.4997 256.588 43.6654 256.316 43.888 256.103C44.1129 255.888 44.378 255.729 44.6834 255.627C44.9888 255.525 45.3179 255.474 45.6706 255.474C45.9097 255.474 46.1548 255.503 46.4057 255.56C46.659 255.614 46.8934 255.711 47.1088 255.851C47.3243 255.988 47.4983 256.18 47.6309 256.426C47.7658 256.672 47.8333 256.985 47.8333 257.364V261H46.704V260.254H46.6614C46.5904 260.396 46.485 260.534 46.3453 260.666C46.2057 260.799 46.0293 260.906 45.8162 260.989C45.6032 261.072 45.3498 261.114 45.0563 261.114ZM45.3333 260.222C45.6103 260.222 45.8482 260.168 46.0471 260.059C46.2483 259.948 46.4022 259.802 46.5087 259.622C46.6176 259.442 46.6721 259.248 46.6721 259.04V258.362C46.6318 258.399 46.5608 258.434 46.459 258.464C46.3572 258.493 46.2412 258.519 46.111 258.543C45.9831 258.564 45.8565 258.583 45.731 258.599C45.6079 258.616 45.5037 258.63 45.4185 258.642C45.2196 258.668 45.0397 258.712 44.8787 258.773C44.7177 258.833 44.5899 258.918 44.4952 259.029C44.4005 259.138 44.3532 259.282 44.3532 259.462C44.3532 259.711 44.4455 259.9 44.6301 260.031C44.8148 260.158 45.0492 260.222 45.3333 260.222ZM49.6026 253.727L51.5664 259.558H51.6445L53.6083 253.727H54.9116L52.3228 261H50.8881L48.2994 253.727H49.6026ZM55.9077 261V255.545H57.0724V261H55.9077ZM56.4972 254.736C56.303 254.736 56.1361 254.671 55.9964 254.54C55.8591 254.41 55.7905 254.254 55.7905 254.072C55.7905 253.889 55.8591 253.733 55.9964 253.603C56.1361 253.473 56.3018 253.408 56.4936 253.408C56.6877 253.408 56.8535 253.473 56.9908 253.603C57.1304 253.733 57.2003 253.889 57.2003 254.072C57.2003 254.254 57.1304 254.41 56.9908 254.54C56.8535 254.671 56.6889 254.736 56.4972 254.736ZM60.7834 261.11C60.2602 261.11 59.8056 260.993 59.4197 260.759C59.0362 260.524 58.7379 260.196 58.5249 259.775C58.3118 259.351 58.2053 258.859 58.2053 258.298C58.2053 257.732 58.3118 257.237 58.5249 256.813C58.7379 256.389 59.0362 256.06 59.4197 255.826C59.8056 255.592 60.2602 255.474 60.7834 255.474C61.3042 255.474 61.7576 255.592 62.1435 255.826C62.5294 256.06 62.8277 256.389 63.0384 256.813C63.2514 257.237 63.358 257.732 63.358 258.298C63.358 258.859 63.2514 259.351 63.0384 259.775C62.8277 260.196 62.5294 260.524 62.1435 260.759C61.7576 260.993 61.3042 261.11 60.7834 261.11ZM60.7869 260.155C61.0994 260.155 61.3587 260.071 61.5646 259.903C61.7706 259.732 61.9245 259.507 62.0263 259.228C62.1281 258.946 62.179 258.635 62.179 258.294C62.179 257.951 62.1281 257.638 62.0263 257.357C61.9245 257.072 61.7706 256.846 61.5646 256.678C61.3587 256.508 61.0994 256.423 60.7869 256.423C60.4697 256.423 60.2069 256.508 59.9986 256.678C59.7926 256.846 59.6387 257.072 59.5369 257.357C59.4351 257.638 59.3842 257.951 59.3842 258.294C59.3842 258.635 59.4351 258.946 59.5369 259.228C59.6387 259.507 59.7926 259.732 59.9986 259.903C60.2069 260.071 60.4697 260.155 60.7869 260.155ZM65.6564 253.727V261H64.4917V253.727H65.6564ZM68.611 261.114C68.2653 261.114 67.9528 261.051 67.6735 260.925C67.3965 260.8 67.1775 260.614 67.0165 260.368C66.8555 260.122 66.775 259.821 66.775 259.466C66.775 259.156 66.833 258.901 66.949 258.702C67.0674 258.501 67.226 258.341 67.4249 258.223C67.6238 258.105 67.8463 258.016 68.0925 257.957C68.3411 257.897 68.5956 257.853 68.856 257.822C69.1803 257.784 69.4431 257.752 69.6444 257.726C69.8456 257.7 69.9924 257.658 70.0847 257.602C70.177 257.545 70.2232 257.454 70.2232 257.328V257.303C70.2232 257.014 70.1391 256.791 69.9711 256.632C69.8053 256.471 69.5615 256.391 69.2395 256.391C68.901 256.391 68.6335 256.465 68.437 256.614C68.2428 256.761 68.1091 256.929 68.0357 257.119L66.9455 256.92C67.0544 256.588 67.2201 256.316 67.4426 256.103C67.6676 255.888 67.9327 255.729 68.2381 255.627C68.5435 255.525 68.8726 255.474 69.2253 255.474C69.4644 255.474 69.7095 255.503 69.9604 255.56C70.2137 255.614 70.4481 255.711 70.6635 255.851C70.879 255.988 71.053 256.18 71.1855 256.426C71.3205 256.672 71.388 256.985 71.388 257.364V261H70.2587V260.254H70.2161C70.1451 260.396 70.0397 260.534 69.9 260.666C69.7604 260.799 69.584 260.906 69.3709 260.989C69.1578 261.072 68.9045 261.114 68.611 261.114ZM68.888 260.222C69.165 260.222 69.4029 260.168 69.6017 260.059C69.803 259.948 69.9569 259.802 70.0634 259.622C70.1723 259.442 70.2267 259.248 70.2267 259.04V258.362C70.1865 258.399 70.1155 258.434 70.0137 258.464C69.9119 258.493 69.7959 258.519 69.6657 258.543C69.5378 258.564 69.4112 258.583 69.2857 258.599C69.1626 258.616 69.0584 258.63 68.9732 258.642C68.7743 258.668 68.5944 258.712 68.4334 258.773C68.2724 258.833 68.1446 258.918 68.0499 259.029C67.9552 259.138 67.9078 259.282 67.9078 259.462C67.9078 259.711 68.0002 259.9 68.1848 260.031C68.3695 260.158 68.6039 260.222 68.888 260.222Z" fill="#38429E"/>
<path d="M89.6516 254.636H86.8874C86.9073 254.401 86.8941 254.189 86.8477 254C86.8013 253.811 86.7217 253.649 86.609 253.513C86.4963 253.374 86.3488 253.268 86.1665 253.195C85.9843 253.122 85.7672 253.085 85.5153 253.085C85.0314 253.085 84.5988 253.206 84.2177 253.448C83.8365 253.687 83.52 254.03 83.2681 254.477C83.0162 254.921 82.8372 255.452 82.7312 256.068C82.6384 256.665 82.6351 257.16 82.7212 257.555C82.8107 257.949 82.9847 258.244 83.2433 258.44C83.5051 258.635 83.8448 258.733 84.2624 258.733C84.5408 258.733 84.796 258.7 85.0281 258.634C85.2634 258.567 85.4722 258.473 85.6545 258.35C85.8401 258.224 85.9975 258.075 86.1268 257.903C86.2594 257.727 86.3604 257.533 86.43 257.321H89.2141C89.1081 257.752 88.9192 258.193 88.6474 258.643C88.3756 259.091 88.0243 259.504 87.5934 259.881C87.1625 260.256 86.6554 260.559 86.0721 260.791C85.4888 261.023 84.8325 261.139 84.1033 261.139C83.1488 261.139 82.3252 260.93 81.6325 260.513C80.9431 260.095 80.4426 259.485 80.131 258.683C79.8228 257.881 79.7615 256.903 79.9471 255.75C80.1327 254.636 80.4989 253.703 81.0458 252.951C81.5927 252.199 82.2572 251.632 83.0394 251.251C83.8216 250.87 84.6535 250.679 85.5352 250.679C86.2013 250.679 86.7979 250.767 87.3249 250.942C87.8552 251.118 88.301 251.375 88.6623 251.713C89.0269 252.048 89.2953 252.46 89.4677 252.951C89.64 253.442 89.7013 254.003 89.6516 254.636ZM93.6036 256.705L92.8877 261H90.1434L91.8337 250.818H94.4786L93.8224 254.815H93.9019C94.1505 254.328 94.4985 253.949 94.9459 253.677C95.3934 253.402 95.9005 253.264 96.4672 253.264C97.0042 253.264 97.4516 253.387 97.8096 253.632C98.1675 253.877 98.4211 254.215 98.5702 254.646C98.7194 255.077 98.7475 255.571 98.6547 256.128L97.8394 261H95.0951L95.811 256.705C95.8706 256.327 95.8226 256.03 95.6668 255.815C95.5143 255.599 95.2641 255.491 94.9161 255.491C94.6907 255.491 94.4852 255.541 94.2996 255.641C94.1173 255.737 93.9649 255.876 93.8422 256.058C93.7229 256.237 93.6434 256.453 93.6036 256.705ZM99.3143 261L100.587 253.364H103.331L102.059 261H99.3143ZM102.078 252.568C101.707 252.568 101.407 252.446 101.179 252.2C100.95 251.952 100.865 251.657 100.925 251.315C100.985 250.967 101.167 250.672 101.472 250.43C101.777 250.185 102.115 250.062 102.486 250.062C102.861 250.062 103.159 250.185 103.381 250.43C103.603 250.672 103.686 250.967 103.63 251.315C103.577 251.657 103.398 251.952 103.093 252.2C102.791 252.446 102.453 252.568 102.078 252.568ZM108.032 250.818L106.341 261H103.597L105.287 250.818H108.032ZM112.314 250.818L110.624 261H107.879L109.57 250.818H112.314ZM113.365 263.864C113.047 263.864 112.75 263.839 112.475 263.789C112.2 263.743 111.96 263.678 111.754 263.595L112.679 261.646C112.891 261.726 113.087 261.777 113.266 261.8C113.448 261.824 113.609 261.81 113.748 261.761C113.887 261.711 114.001 261.616 114.091 261.477L114.18 261.338L112.818 253.364H115.582L115.93 258.653H116.01L118.148 253.364H121.131L116.975 261.636C116.762 262.057 116.497 262.435 116.179 262.77C115.864 263.108 115.476 263.375 115.016 263.57C114.555 263.766 114.005 263.864 113.365 263.864ZM128.567 254.179C128.553 254.003 128.517 253.849 128.457 253.717C128.398 253.581 128.313 253.466 128.204 253.374C128.094 253.277 127.958 253.206 127.796 253.16C127.637 253.11 127.45 253.085 127.234 253.085C126.77 253.085 126.348 253.196 125.966 253.418C125.585 253.64 125.265 253.96 125.007 254.378C124.752 254.795 124.576 255.299 124.48 255.889C124.38 256.486 124.372 256.996 124.455 257.42C124.538 257.845 124.717 258.17 124.992 258.395C125.27 258.62 125.647 258.733 126.121 258.733C126.545 258.733 126.911 258.672 127.219 258.549C127.528 258.426 127.774 258.252 127.96 258.027C128.146 257.802 128.262 257.536 128.308 257.232L128.785 257.281H126.459L126.777 255.312H131.291L131.062 256.724C130.91 257.652 130.582 258.446 130.078 259.106C129.577 259.762 128.954 260.266 128.209 260.617C127.463 260.965 126.644 261.139 125.753 261.139C124.765 261.139 123.931 260.929 123.252 260.508C122.572 260.087 122.087 259.487 121.795 258.708C121.507 257.929 121.451 257.003 121.626 255.929C121.765 255.087 122.017 254.341 122.382 253.692C122.75 253.042 123.199 252.494 123.729 252.046C124.26 251.595 124.844 251.256 125.484 251.027C126.124 250.795 126.787 250.679 127.473 250.679C128.073 250.679 128.618 250.765 129.108 250.938C129.599 251.107 130.018 251.348 130.366 251.663C130.714 251.975 130.974 252.344 131.147 252.772C131.322 253.2 131.394 253.669 131.361 254.179H128.567ZM131.939 261L133.63 250.818H138.044C138.82 250.818 139.455 250.923 139.949 251.131C140.446 251.34 140.797 251.635 141.003 252.016C141.211 252.397 141.273 252.847 141.186 253.364C141.12 253.735 140.978 254.075 140.759 254.383C140.544 254.688 140.27 254.946 139.939 255.158C139.611 255.367 139.244 255.511 138.84 255.591L138.82 255.69C139.258 255.704 139.639 255.813 139.963 256.018C140.288 256.221 140.527 256.502 140.679 256.864C140.832 257.222 140.868 257.639 140.789 258.116C140.696 258.673 140.469 259.169 140.108 259.603C139.746 260.037 139.277 260.379 138.701 260.627C138.124 260.876 137.468 261 136.732 261H131.939ZM135.081 258.793H136.374C136.831 258.793 137.191 258.705 137.453 258.529C137.718 258.353 137.875 258.097 137.925 257.759C137.965 257.52 137.945 257.318 137.865 257.152C137.786 256.986 137.652 256.86 137.463 256.774C137.274 256.688 137.037 256.645 136.752 256.645H135.419L135.081 258.793ZM135.718 254.935H136.851C137.09 254.935 137.309 254.897 137.508 254.82C137.706 254.744 137.87 254.633 138 254.487C138.129 254.341 138.21 254.166 138.243 253.96C138.293 253.642 138.217 253.4 138.015 253.234C137.816 253.069 137.547 252.986 137.209 252.986H136.036L135.718 254.935Z" fill="#38429E"/>
<g filter="url(#filter15_i_7_209)">
<rect x="191.928" y="422" width="48" height="8" rx="4" transform="rotate(60 191.928 422)" fill="#D2D2D2"/>
<rect x="205.785" y="414" width="48" height="8" rx="4" transform="rotate(60 205.785 414)" fill="#D2D2D2"/>
<rect x="219.641" y="406" width="48" height="8" rx="4" transform="rotate(60 219.641 406)" fill="#D2D2D2"/>
<rect x="233.497" y="398" width="48" height="8" rx="4" transform="rotate(60 233.497 398)" fill="#D2D2D2"/>
<rect x="247.354" y="390" width="48" height="8" rx="4" transform="rotate(60 247.354 390)" fill="#D2D2D2"/>
<rect x="261.21" y="382" width="48" height="8" rx="4" transform="rotate(60 261.21 382)" fill="#D2D2D2"/>
</g>
<defs>
<filter id="filter0_di_7_209" x="0" y="0" width="293" height="501" filterUnits="userSpaceOnUse" color-interpolation-filters="sRGB">
<feFlood flood-opacity="0" result="BackgroundImageFix"/>
<feColorMatrix in="SourceAlpha" type="matrix" values="0 0 0 0 0 0 0 0 0 0 0 0 0 0 0 0 0 0 127 0" result="hardAlpha"/>
<feOffset dy="16"/>
<feComposite in2="hardAlpha" operator="out"/>
<feColorMatrix type="matrix" values="0 0 0 0 0.701961 0 0 0 0 0.701961 0 0 0 0 0.701961 0 0 0 1 0"/>
<feBlend mode="normal" in2="BackgroundImageFix" result="effect1_dropShadow_7_209"/>
<feBlend mode="normal" in="SourceGraphic" in2="effect1_dropShadow_7_209" result="shape"/>
<feColorMatrix in="SourceAlpha" type="matrix" values="0 0 0 0 0 0 0 0 0 0 0 0 0 0 0 0 0 0 127 0" result="hardAlpha"/>
<feMorphology radius="1" operator="erode" in="SourceAlpha" result="effect2_innerShadow_7_209"/>
<feOffset/>
<feGaussianBlur stdDeviation="0.4"/>
<feComposite in2="hardAlpha" operator="arithmetic" k2="-1" k3="1"/>
<feColorMatrix type="matrix" values="0 0 0 0 0.701961 0 0 0 0 0.701961 0 0 0 0 0.701961 0 0 0 1 0"/>
<feBlend mode="normal" in2="shape" result="effect2_innerShadow_7_209"/>
</filter>
<filter id="filter1_i_7_209" x="16" y="288" width="79" height="79" filterUnits="userSpaceOnUse" color-interpolation-filters="sRGB">
<feFlood flood-opacity="0" result="BackgroundImageFix"/>
<feBlend mode="normal" in="SourceGraphic" in2="BackgroundImageFix" result="shape"/>
<feColorMatrix in="SourceAlpha" type="matrix" values="0 0 0 0 0 0 0 0 0 0 0 0 0 0 0 0 0 0 127 0" result="hardAlpha"/>
<feOffset dy="4"/>
<feComposite in2="hardAlpha" operator="arithmetic" k2="-1" k3="1"/>
<feColorMatrix type="matrix" values="0 0 0 0 0 0 0 0 0 0 0 0 0 0 0 0 0 0 0.15 0"/>
<feBlend mode="normal" in2="shape" result="effect1_innerShadow_7_209"/>
</filter>
<filter id="filter2_i_7_209" x="24" y="296" width="63" height="63" filterUnits="userSpaceOnUse" color-interpolation-filters="sRGB">
<feFlood flood-opacity="0" result="BackgroundImageFix"/>
<feBlend mode="normal" in="SourceGraphic" in2="BackgroundImageFix" result="shape"/>
<feColorMatrix in="SourceAlpha" type="matrix" values="0 0 0 0 0 0 0 0 0 0 0 0 0 0 0 0 0 0 127 0" result="hardAlpha"/>
<feOffset dy="-2"/>
<feComposite in2="hardAlpha" operator="arithmetic" k2="-1" k3="1"/>
<feColorMatrix type="matrix" values="0 0 0 0 0 0 0 0 0 0 0 0 0 0 0 0 0 0 0.25 0"/>
<feBlend mode="normal" in2="shape" result="effect1_innerShadow_7_209"/>
</filter>
<filter id="filter3_i_7_209" x="186.22" y="286.9" width="90.0562" height="67.6126" filterUnits="userSpaceOnUse" color-interpolation-filters="sRGB">
<feFlood flood-opacity="0" result="BackgroundImageFix"/>
<feBlend mode="normal" in="SourceGraphic" in2="BackgroundImageFix" result="shape"/>
<feColorMatrix in="SourceAlpha" type="matrix" values="0 0 0 0 0 0 0 0 0 0 0 0 0 0 0 0 0 0 127 0" result="hardAlpha"/>
<feOffset dy="4"/>
<feComposite in2="hardAlpha" operator="arithmetic" k2="-1" k3="1"/>
<feColorMatrix type="matrix" values="0 0 0 0 0 0 0 0 0 0 0 0 0 0 0 0 0 0 0.15 0"/>
<feBlend mode="normal" in2="shape" result="effect1_innerShadow_7_209"/>
</filter>
<filter id="filter4_i_7_209" x="190.783" y="313.346" width="35.484" height="35.9128" filterUnits="userSpaceOnUse" color-interpolation-filters="sRGB">
<feFlood flood-opacity="0" result="BackgroundImageFix"/>
<feBlend mode="normal" in="SourceGraphic" in2="BackgroundImageFix" result="shape"/>
<feColorMatrix in="SourceAlpha" type="matrix" values="0 0 0 0 0 0 0 0 0 0 0 0 0 0 0 0 0 0 127 0" result="hardAlpha"/>
<feOffset dy="-3"/>
<feComposite in2="hardAlpha" operator="arithmetic" k2="-1" k3="1"/>
<feColorMatrix type="matrix" values="0 0 0 0 0 0 0 0 0 0 0 0 0 0 0 0 0 0 0.15 0"/>
<feBlend mode="normal" in2="shape" result="effect1_innerShadow_7_209"/>
</filter>
<filter id="filter5_i_7_209" x="236.23" y="292.153" width="35.484" height="35.9128" filterUnits="userSpaceOnUse" color-interpolation-filters="sRGB">
<feFlood flood-opacity="0" result="BackgroundImageFix"/>
<feBlend mode="normal" in="SourceGraphic" in2="BackgroundImageFix" result="shape"/>
<feColorMatrix in="SourceAlpha" type="matrix" values="0 0 0 0 0 0 0 0 0 0 0 0 0 0 0 0 0 0 127 0" result="hardAlpha"/>
<feOffset dy="-3"/>
<feComposite in2="hardAlpha" operator="arithmetic" k2="-1" k3="1"/>
<feColorMatrix type="matrix" values="0 0 0 0 0 0 0 0 0 0 0 0 0 0 0 0 0 0 0.15 0"/>
<feBlend mode="normal" in2="shape" result="effect1_innerShadow_7_209"/>
</filter>
<filter id="filter6_i_7_209" x="136.935" y="389.287" width="38.131" height="28.4572" filterUnits="userSpaceOnUse" color-interpolation-filters="sRGB">
<feFlood flood-opacity="0" result="BackgroundImageFix"/>
<feBlend mode="normal" in="SourceGraphic" in2="BackgroundImageFix" result="shape"/>
<feColorMatrix in="SourceAlpha" type="matrix" values="0 0 0 0 0 0 0 0 0 0 0 0 0 0 0 0 0 0 127 0" result="hardAlpha"/>
<feOffset dy="2"/>
<feComposite in2="hardAlpha" operator="arithmetic" k2="-1" k3="1"/>
<feColorMatrix type="matrix" values="0 0 0 0 0 0 0 0 0 0 0 0 0 0 0 0 0 0 0.15 0"/>
<feBlend mode="normal" in2="shape" result="effect1_innerShadow_7_209"/>
</filter>
<filter id="filter7_i_7_209" x="139.67" y="393.232" width="32.6601" height="20.5678" filterUnits="userSpaceOnUse" color-interpolation-filters="sRGB">
<feFlood flood-opacity="0" result="BackgroundImageFix"/>
<feBlend mode="normal" in="SourceGraphic" in2="BackgroundImageFix" result="shape"/>
<feColorMatrix in="SourceAlpha" type="matrix" values="0 0 0 0 0 0 0 0 0 0 0 0 0 0 0 0 0 0 127 0" result="hardAlpha"/>
<feOffset dy="-2"/>
<feComposite in2="hardAlpha" operator="arithmetic" k2="-1" k3="1"/>
<feColorMatrix type="matrix" values="0 0 0 0 0 0 0 0 0 0 0 0 0 0 0 0 0 0 0.15 0"/>
<feBlend mode="normal" in2="shape" result="effect1_innerShadow_7_209"/>
</filter>
<filter id="filter8_i_7_209" x="92.2869" y="389.802" width="38.1309" height="28.4572" filterUnits="userSpaceOnUse" color-interpolation-filters="sRGB">
<feFlood flood-opacity="0" result="BackgroundImageFix"/>
<feBlend mode="normal" in="SourceGraphic" in2="BackgroundImageFix" result="shape"/>
<feColorMatrix in="SourceAlpha" type="matrix" values="0 0 0 0 0 0 0 0 0 0 0 0 0 0 0 0 0 0 127 0" result="hardAlpha"/>
<feOffset dy="2"/>
<feComposite in2="hardAlpha" operator="arithmetic" k2="-1" k3="1"/>
<feColorMatrix type="matrix" values="0 0 0 0 0 0 0 0 0 0 0 0 0 0 0 0 0 0 0.15 0"/>
<feBlend mode="normal" in2="shape" result="effect1_innerShadow_7_209"/>
</filter>
<filter id="filter9_i_7_209" x="95.0223" y="393.747" width="32.6601" height="20.5678" filterUnits="userSpaceOnUse" color-interpolation-filters="sRGB">
<feFlood flood-opacity="0" result="BackgroundImageFix"/>
<feBlend mode="normal" in="SourceGraphic" in2="BackgroundImageFix" result="shape"/>
<feColorMatrix in="SourceAlpha" type="matrix" values="0 0 0 0 0 0 0 0 0 0 0 0 0 0 0 0 0 0 127 0" result="hardAlpha"/>
<feOffset dy="-2"/>
<feComposite in2="hardAlpha" operator="arithmetic" k2="-1" k3="1"/>
<feColorMatrix type="matrix" values="0 0 0 0 0 0 0 0 0 0 0 0 0 0 0 0 0 0 0.15 0"/>
<feBlend mode="normal" in2="shape" result="effect1_innerShadow_7_209"/>
</filter>
<filter id="filter10_di_7_209" x="13.2" y="37.2" width="265.6" height="208.6" filterUnits="userSpaceOnUse" color-interpolation-filters="sRGB">
<feFlood flood-opacity="0" result="BackgroundImageFix"/>
<feColorMatrix in="SourceAlpha" type="matrix" values="0 0 0 0 0 0 0 0 0 0 0 0 0 0 0 0 0 0 127 0" result="hardAlpha"/>
<feMorphology radius="1" operator="dilate" in="SourceAlpha" result="effect1_dropShadow_7_209"/>
<feOffset/>
<feGaussianBlur stdDeviation="0.9"/>
<feComposite in2="hardAlpha" operator="out"/>
<feColorMatrix type="matrix" values="0 0 0 0 0 0 0 0 0 0 0 0 0 0 0 0 0 0 0.15 0"/>
<feBlend mode="normal" in2="BackgroundImageFix" result="effect1_dropShadow_7_209"/>
<feBlend mode="normal" in="SourceGraphic" in2="effect1_dropShadow_7_209" result="shape"/>
<feColorMatrix in="SourceAlpha" type="matrix" values="0 0 0 0 0 0 0 0 0 0 0 0 0 0 0 0 0 0 127 0" result="hardAlpha"/>
<feMorphology radius="1" operator="erode" in="SourceAlpha" result="effect2_innerShadow_7_209"/>
<feOffset/>
<feGaussianBlur stdDeviation="0.9"/>
<feComposite in2="hardAlpha" operator="arithmetic" k2="-1" k3="1"/>
<feColorMatrix type="matrix" values="0 0 0 0 0 0 0 0 0 0 0 0 0 0 0 0 0 0 0.15 0"/>
<feBlend mode="normal" in2="shape" result="effect2_innerShadow_7_209"/>
</filter>
<filter id="filter11_ii_7_209" x="59" y="63" width="174" height="157" filterUnits="userSpaceOnUse" color-interpolation-filters="sRGB">
<feFlood flood-opacity="0" result="BackgroundImageFix"/>
<feBlend mode="normal" in="SourceGraphic" in2="BackgroundImageFix" result="shape"/>
<feColorMatrix in="SourceAlpha" type="matrix" values="0 0 0 0 0 0 0 0 0 0 0 0 0 0 0 0 0 0 127 0" result="hardAlpha"/>
<feMorphology radius="6" operator="dilate" in="SourceAlpha" result="effect1_innerShadow_7_209"/>
<feOffset dx="10" dy="13"/>
<feGaussianBlur stdDeviation="2"/>
<feComposite in2="hardAlpha" operator="arithmetic" k2="-1" k3="1"/>
<feColorMatrix type="matrix" values="0 0 0 0 0 0 0 0 0 0 0 0 0 0 0 0 0 0 0.2 0"/>
<feBlend mode="normal" in2="shape" result="effect1_innerShadow_7_209"/>
<feColorMatrix in="SourceAlpha" type="matrix" values="0 0 0 0 0 0 0 0 0 0 0 0 0 0 0 0 0 0 127 0" result="hardAlpha"/>
<feOffset dy="2"/>
<feComposite in2="hardAlpha" operator="arithmetic" k2="-1" k3="1"/>
<feColorMatrix type="matrix" values="0 0 0 0 0.304688 0 0 0 0 0.3075 0 0 0 0 0.375 0 0 0 1 0"/>
<feBlend mode="normal" in2="effect1_innerShadow_7_209" result="effect2_innerShadow_7_209"/>
</filter>
<filter id="filter12_i_7_209" x="27" y="109" width="12" height="12" filterUnits="userSpaceOnUse" color-interpolation-filters="sRGB">
<feFlood flood-opacity="0" result="BackgroundImageFix"/>
<feBlend mode="normal" in="SourceGraphic" in2="BackgroundImageFix" result="shape"/>
<feColorMatrix in="SourceAlpha" type="matrix" values="0 0 0 0 0 0 0 0 0 0 0 0 0 0 0 0 0 0 127 0" result="hardAlpha"/>
<feOffset/>
<feGaussianBlur stdDeviation="1.95"/>
<feComposite in2="hardAlpha" operator="arithmetic" k2="-1" k3="1"/>
<feColorMatrix type="matrix" values="0 0 0 0 0 0 0 0 0 0 0 0 0 0 0 0 0 0 0.25 0"/>
<feBlend mode="normal" in2="shape" result="effect1_innerShadow_7_209"/>
</filter>
<filter id="filter13_df_7_209" x="101.755" y="120.167" width="89.4855" height="43.433" filterUnits="userSpaceOnUse" color-interpolation-filters="sRGB">
<feFlood flood-opacity="0" result="BackgroundImageFix"/>
<feColorMatrix in="SourceAlpha" type="matrix" values="0 0 0 0 0 0 0 0 0 0 0 0 0 0 0 0 0 0 127 0" result="hardAlpha"/>
<feOffset/>
<feGaussianBlur stdDeviation="2.8"/>
<feComposite in2="hardAlpha" operator="out"/>
<feColorMatrix type="matrix" values="0 0 0 0 0 0 0 0 0 0 0 0 0 0 0 0 0 0 0.5 0"/>
<feBlend mode="normal" in2="BackgroundImageFix" result="effect1_dropShadow_7_209"/>
<feBlend mode="normal" in="SourceGraphic" in2="effect1_dropShadow_7_209" result="shape"/>
<feGaussianBlur stdDeviation="0.3" result="effect2_foregroundBlur_7_209"/>
</filter>
<filter id="filter14_i_7_209" x="0" y="0" width="293.002" height="22" filterUnits="userSpaceOnUse" color-interpolation-filters="sRGB">
<feFlood flood-opacity="0" result="BackgroundImageFix"/>
<feBlend mode="normal" in="SourceGraphic" in2="BackgroundImageFix" result="shape"/>
<feColorMatrix in="SourceAlpha" type="matrix" values="0 0 0 0 0 0 0 0 0 0 0 0 0 0 0 0 0 0 127 0" result="hardAlpha"/>
<feOffset dy="1"/>
<feComposite in2="hardAlpha" operator="arithmetic" k2="-1" k3="1"/>
<feColorMatrix type="matrix" values="0 0 0 0 0 0 0 0 0 0 0 0 0 0 0 0 0 0 0.25 0"/>
<feBlend mode="normal" in2="shape" result="effect1_innerShadow_7_209"/>
</filter>
<filter id="filter15_i_7_209" x="186.463" y="383.463" width="97.2834" height="82.6423" filterUnits="userSpaceOnUse" color-interpolation-filters="sRGB">
<feFlood flood-opacity="0" result="BackgroundImageFix"/>
<feBlend mode="normal" in="SourceGraphic" in2="BackgroundImageFix" result="shape"/>
<feColorMatrix in="SourceAlpha" type="matrix" values="0 0 0 0 0 0 0 0 0 0 0 0 0 0 0 0 0 0 127 0" result="hardAlpha"/>
<feOffset dy="2"/>
<feComposite in2="hardAlpha" operator="arithmetic" k2="-1" k3="1"/>
<feColorMatrix type="matrix" values="0 0 0 0 0 0 0 0 0 0 0 0 0 0 0 0 0 0 0.15 0"/>
<feBlend mode="normal" in2="shape" result="effect1_innerShadow_7_209"/>
</filter>
</defs>
</svg>
